<?xml version="1.0" encoding="UTF-8" standalone="no" ?>
<!DOCTYPE svg PUBLIC "-//W3C//DTD SVG 1.1//EN" "http://www.w3.org/Graphics/SVG/1.1/DTD/svg11.dtd">
<svg xmlns="http://www.w3.org/2000/svg" xmlns:xlink="http://www.w3.org/1999/xlink" version="1.1" width="138" height="130" viewBox="0 0 138 130" xml:space="preserve">
<desc>Created with Fabric.js 5.2.4</desc>
<defs>
</defs>
<g transform="matrix(1 0 0 1 69 65)" id="7e5b7024-0c6c-467e-bdd1-72d8336b4d78"  >
<rect style="stroke: none; stroke-width: 1; stroke-dasharray: none; stroke-linecap: butt; stroke-dashoffset: 0; stroke-linejoin: miter; stroke-miterlimit: 4; fill: rgb(255,255,255); fill-rule: nonzero; opacity: 1; visibility: hidden;" vector-effect="non-scaling-stroke"  x="-69" y="-65" rx="0" ry="0" width="138" height="130" />
</g>
<g transform="matrix(Infinity NaN NaN Infinity 0 0)" id="1b83fe11-dbd3-4604-8926-5a78b199584c"  >
</g>
<g transform="matrix(0.19 0 0 0.19 69 65)"  >
<g style=""   >
		<g transform="matrix(1 0 0 1 78.85 -107.75)"  >
<path style="stroke: rgb(50,118,128); stroke-width: 2.03944; stroke-dasharray: none; stroke-linecap: butt; stroke-dashoffset: 0; stroke-linejoin: miter; stroke-miterlimit: 4; fill: rgb(75,142,150); fill-rule: nonzero; opacity: 1;" vector-effect="non-scaling-stroke"  transform=" translate(-429.85, -210.25)" d="M 310.543 53.722 L 353.371 25.1699 L 549.157 138.359 L 549.157 366.776 L 502.25 395.328 L 502.25 166.911 L 310.543 53.722 Z" stroke-linecap="round" />
</g>
		<g transform="matrix(1 0 0 1 129.52 15.21)"  >
<path style="stroke: rgb(50,118,128); stroke-width: 2.03944; stroke-dasharray: none; stroke-linecap: butt; stroke-dashoffset: 0; stroke-linejoin: miter; stroke-miterlimit: 4; fill: rgb(75,142,150); fill-rule: nonzero; opacity: 1;" vector-effect="non-scaling-stroke"  transform=" translate(-480.52, -333.21)" d="M 557.441 151.621 L 603.582 174.435 L 603.451 400.585 L 405.636 514.794 L 357.455 488.447 L 555.27 374.239 L 557.441 151.621 Z" stroke-linecap="round" />
</g>
		<g transform="matrix(1 0 0 1 -129.51 -17.42)"  >
<path style="stroke: rgb(17,39,43); stroke-width: 2.03944; stroke-dasharray: none; stroke-linecap: butt; stroke-dashoffset: 0; stroke-linejoin: miter; stroke-miterlimit: 4; fill: rgb(75,142,150); fill-rule: nonzero; opacity: 1;" vector-effect="non-scaling-stroke"  transform=" translate(-221.49, -300.58)" d="M 144.571 482.169 L 98.4297 459.355 L 98.561 233.205 L 296.376 118.996 L 344.556 145.343 L 146.741 259.551 L 144.571 482.169 Z" stroke-linecap="round" />
</g>
		<g transform="matrix(1 0 0 1 -52 -176.14)"  >
<path style="stroke: rgb(17,39,43); stroke-width: 2.03944; stroke-dasharray: none; stroke-linecap: butt; stroke-dashoffset: 0; stroke-linejoin: miter; stroke-miterlimit: 4; fill: rgb(37,70,74); fill-rule: nonzero; opacity: 1;" vector-effect="non-scaling-stroke"  transform=" translate(-299, -141.86)" d="M 104.807 221.631 L 101.494 170.264 L 297.411 57.303 L 495.226 171.511 L 496.5 226.41 L 298.685 112.202 L 104.807 221.631 Z" stroke-linecap="round" />
</g>
		<g transform="matrix(1 0 0 1 -80.23 104.35)"  >
<path style="stroke: rgb(10,24,26); stroke-width: 2.03944; stroke-dasharray: none; stroke-linecap: butt; stroke-dashoffset: 0; stroke-linejoin: miter; stroke-miterlimit: 4; fill: rgb(75,142,150); fill-rule: nonzero; opacity: 1;" vector-effect="non-scaling-stroke"  transform=" translate(-270.77, -422.35)" d="M 390.08 578.881 L 347.252 607.433 L 151.466 494.244 L 151.466 265.827 L 198.373 237.275 L 198.373 465.692 L 390.08 578.881 Z" stroke-linecap="round" />
</g>
		<g transform="matrix(1 0 0 1 49.98 175.97)"  >
<path style="stroke: rgb(10,24,26); stroke-width: 2.03944; stroke-dasharray: none; stroke-linecap: butt; stroke-dashoffset: 0; stroke-linejoin: miter; stroke-miterlimit: 4; fill: rgb(19,58,64); fill-rule: nonzero; opacity: 1;" vector-effect="non-scaling-stroke"  transform=" translate(-400.98, -493.97)" d="M 595.166 414.2 L 598.478 465.566 L 402.561 578.528 L 204.746 464.319 L 203.473 409.42 L 401.288 523.629 L 595.166 414.2 Z" stroke-linecap="round" />
</g>
		<g transform="matrix(1 0 0 1 204.41 -22.87)"  >
<path style="stroke: none; stroke-width: 1; stroke-dasharray: none; stroke-linecap: butt; stroke-dashoffset: 0; stroke-linejoin: miter; stroke-miterlimit: 4; fill: rgb(220,255,244); fill-rule: nonzero; opacity: 1;" vector-effect="non-scaling-stroke"  transform=" translate(-555.41, -295.13)" d="M 504.017 361.014 L 504.017 229.246 L 606.796 229.246 L 606.796 361.014 L 580.066 361.014 L 580.066 252.587 L 530.747 252.587 L 530.747 361.014 L 504.017 361.014 Z" stroke-linecap="round" />
</g>
		<g transform="matrix(1 0 0 1 204.41 -22.87)"  >
<path style="stroke: none; stroke-width: 1; stroke-dasharray: none; stroke-linecap: butt; stroke-dashoffset: 0; stroke-linejoin: miter; stroke-miterlimit: 4; fill: rgb(37,70,74); fill-rule: nonzero; opacity: 1;" vector-effect="non-scaling-stroke"  transform=" translate(-555.41, -295.13)" d="M 504.017 361.014 L 501.121 361.014 L 501.121 363.91 L 504.017 363.91 L 504.017 361.014 Z M 504.017 229.246 L 504.017 226.35 L 501.121 226.35 L 501.121 229.246 L 504.017 229.246 Z M 606.796 229.246 L 609.692 229.246 L 609.692 226.35 L 606.796 226.35 L 606.796 229.246 Z M 606.796 361.014 L 606.796 363.91 L 609.692 363.91 L 609.692 361.014 L 606.796 361.014 Z M 580.066 361.014 L 577.17 361.014 L 577.17 363.91 L 580.066 363.91 L 580.066 361.014 Z M 580.066 252.587 L 582.962 252.587 L 582.962 249.691 L 580.066 249.691 L 580.066 252.587 Z M 530.747 252.587 L 530.747 249.691 L 527.851 249.691 L 527.851 252.587 L 530.747 252.587 Z M 530.747 361.014 L 530.747 363.91 L 533.643 363.91 L 533.643 361.014 L 530.747 361.014 Z M 506.913 361.014 L 506.913 229.246 L 501.121 229.246 L 501.121 361.014 L 506.913 361.014 Z M 504.017 232.142 L 606.796 232.142 L 606.796 226.35 L 504.017 226.35 L 504.017 232.142 Z M 603.9 229.246 L 603.9 361.014 L 609.692 361.014 L 609.692 229.246 L 603.9 229.246 Z M 606.796 358.118 L 580.066 358.118 L 580.066 363.91 L 606.796 363.91 L 606.796 358.118 Z M 582.962 361.014 L 582.962 252.587 L 577.17 252.587 L 577.17 361.014 L 582.962 361.014 Z M 580.066 249.691 L 530.747 249.691 L 530.747 255.483 L 580.066 255.483 L 580.066 249.691 Z M 527.851 252.587 L 527.851 361.014 L 533.643 361.014 L 533.643 252.587 L 527.851 252.587 Z M 530.747 358.118 L 504.017 358.118 L 504.017 363.91 L 530.747 363.91 L 530.747 358.118 Z" stroke-linecap="round" />
</g>
		<g transform="matrix(1 0 0 1 -1.71 -1.18)"  >
<path style="stroke: none; stroke-width: 1; stroke-dasharray: none; stroke-linecap: butt; stroke-dashoffset: 0; stroke-linejoin: miter; stroke-miterlimit: 4; fill: rgb(255,255,255); fill-rule: nonzero; opacity: 1;" vector-effect="non-scaling-stroke"  transform=" translate(-349.29, -316.82)" d="M 349.29 459.578 C 428.134 459.578 492.05 395.662 492.05 316.818 C 492.05 237.973 428.134 174.057 349.29 174.057 C 270.445 174.057 206.529 237.973 206.529 316.818 C 206.529 395.662 270.445 459.578 349.29 459.578 Z" stroke-linecap="round" />
</g>
		<g transform="matrix(1 0 0 1 -1.71 -1.18)"  >
<path style="stroke: none; stroke-width: 1; stroke-dasharray: none; stroke-linecap: butt; stroke-dashoffset: 0; stroke-linejoin: miter; stroke-miterlimit: 4; fill: rgb(237,160,0); fill-rule: nonzero; opacity: 1;" vector-effect="non-scaling-stroke"  transform=" translate(-349.29, -316.82)" d="M 349.288 432.914 C 413.407 432.914 465.386 380.935 465.386 316.817 C 465.386 252.698 413.407 200.72 349.288 200.72 C 285.17 200.72 233.191 252.698 233.191 316.817 C 233.191 380.935 285.17 432.914 349.288 432.914 Z" stroke-linecap="round" />
</g>
		<g transform="matrix(1 0 0 1 64.64 -24.19)"  >
<path style="stroke: none; stroke-width: 1; stroke-dasharray: none; stroke-linecap: butt; stroke-dashoffset: 0; stroke-linejoin: miter; stroke-miterlimit: 4; fill: rgb(255,198,27); fill-rule: nonzero; opacity: 1;" vector-effect="non-scaling-stroke"  transform=" translate(-415.64, -293.81)" d="M 415.64 296.599 C 417.179 296.599 418.426 295.351 418.426 293.812 C 418.426 292.273 417.179 291.026 415.64 291.026 C 414.101 291.026 412.854 292.273 412.854 293.812 C 412.854 295.351 414.101 296.599 415.64 296.599 Z" stroke-linecap="round" />
</g>
		<g transform="matrix(1 0 0 1 4.72 52.65)"  >
<path style="stroke: none; stroke-width: 1; stroke-dasharray: none; stroke-linecap: butt; stroke-dashoffset: 0; stroke-linejoin: miter; stroke-miterlimit: 4; fill: rgb(255,198,27); fill-rule: nonzero; opacity: 1;" vector-effect="non-scaling-stroke"  transform=" translate(-355.72, -370.65)" d="M 355.725 374.117 C 357.641 374.117 359.195 372.563 359.195 370.646 C 359.195 368.73 357.641 367.176 355.725 367.176 C 353.808 367.176 352.254 368.73 352.254 370.646 C 352.254 372.563 353.808 374.117 355.725 374.117 Z" stroke-linecap="round" />
</g>
		<g transform="matrix(1 0 0 1 9.57 86.52)"  >
<path style="stroke: none; stroke-width: 1; stroke-dasharray: none; stroke-linecap: butt; stroke-dashoffset: 0; stroke-linejoin: miter; stroke-miterlimit: 4; fill: rgb(255,198,27); fill-rule: nonzero; opacity: 1;" vector-effect="non-scaling-stroke"  transform=" translate(-360.57, -404.52)" d="M 362.207 404.519 C 362.207 405.423 361.474 406.159 360.569 406.159 C 359.665 406.159 358.93 405.425 358.93 404.519 C 358.93 403.612 359.663 402.879 360.569 402.879 C 361.474 402.879 362.207 403.612 362.207 404.519 Z" stroke-linecap="round" />
</g>
		<g transform="matrix(1 0 0 1 -59.78 22.83)"  >
<path style="stroke: none; stroke-width: 1; stroke-dasharray: none; stroke-linecap: butt; stroke-dashoffset: 0; stroke-linejoin: miter; stroke-miterlimit: 4; fill: rgb(255,198,27); fill-rule: nonzero; opacity: 1;" vector-effect="non-scaling-stroke"  transform=" translate(-291.22, -340.83)" d="M 294.332 340.828 C 294.332 342.544 292.941 343.937 291.226 343.937 C 289.51 343.937 288.117 342.546 288.117 340.828 C 288.117 339.111 289.508 337.72 291.226 337.72 C 292.939 337.72 294.332 339.111 294.332 340.828 Z" stroke-linecap="round" />
</g>
		<g transform="matrix(1 0 0 1 -21.24 -42.82)"  >
<path style="stroke: none; stroke-width: 1; stroke-dasharray: none; stroke-linecap: butt; stroke-dashoffset: 0; stroke-linejoin: miter; stroke-miterlimit: 4; fill: rgb(255,198,27); fill-rule: nonzero; opacity: 1;" vector-effect="non-scaling-stroke"  transform=" translate(-329.76, -275.18)" d="M 333.044 275.18 C 333.044 276.997 331.571 278.468 329.755 278.468 C 327.94 278.468 326.467 276.995 326.467 275.18 C 326.467 273.364 327.94 271.891 329.755 271.891 C 331.571 271.891 333.044 273.362 333.044 275.18 Z" stroke-linecap="round" />
</g>
		<g transform="matrix(1 0 0 1 -11.86 -40.66)"  >
<path style="stroke: none; stroke-width: 1; stroke-dasharray: none; stroke-linecap: butt; stroke-dashoffset: 0; stroke-linejoin: miter; stroke-miterlimit: 4; fill: rgb(255,198,27); fill-rule: nonzero; opacity: 1;" vector-effect="non-scaling-stroke"  transform=" translate(-339.14, -277.34)" d="M 339.136 279.159 C 340.141 279.159 340.956 278.344 340.956 277.339 C 340.956 276.334 340.141 275.52 339.136 275.52 C 338.131 275.52 337.316 276.334 337.316 277.339 C 337.316 278.344 338.131 279.159 339.136 279.159 Z" stroke-linecap="round" />
</g>
		<g transform="matrix(1 0 0 1 10.58 -63.53)"  >
<path style="stroke: none; stroke-width: 1; stroke-dasharray: none; stroke-linecap: butt; stroke-dashoffset: 0; stroke-linejoin: miter; stroke-miterlimit: 4; fill: rgb(255,198,27); fill-rule: nonzero; opacity: 1;" vector-effect="non-scaling-stroke"  transform=" translate(-361.58, -254.47)" d="M 363.768 254.467 C 363.768 255.676 362.788 256.656 361.579 256.656 C 360.371 256.656 359.391 255.676 359.391 254.467 C 359.391 253.259 360.371 252.279 361.579 252.279 C 362.788 252.279 363.768 253.259 363.768 254.467 Z" stroke-linecap="round" />
</g>
		<g transform="matrix(1 0 0 1 -3.9 -94.8)"  >
<path style="stroke: none; stroke-width: 1; stroke-dasharray: none; stroke-linecap: butt; stroke-dashoffset: 0; stroke-linejoin: miter; stroke-miterlimit: 4; fill: rgb(255,198,27); fill-rule: nonzero; opacity: 1;" vector-effect="non-scaling-stroke"  transform=" translate(-347.1, -223.2)" d="M 349.293 223.202 C 349.293 224.411 348.313 225.39 347.105 225.39 C 345.896 225.39 344.916 224.411 344.916 223.202 C 344.916 221.993 345.896 221.013 347.105 221.013 C 348.313 221.013 349.293 221.993 349.293 223.202 Z" stroke-linecap="round" />
</g>
		<g transform="matrix(1 0 0 1 -14.37 -94.27)"  >
<path style="stroke: none; stroke-width: 1; stroke-dasharray: none; stroke-linecap: butt; stroke-dashoffset: 0; stroke-linejoin: miter; stroke-miterlimit: 4; fill: rgb(255,198,27); fill-rule: nonzero; opacity: 1;" vector-effect="non-scaling-stroke"  transform=" translate(-336.63, -223.73)" d="M 339.346 223.728 C 339.346 225.228 338.131 226.444 336.631 226.444 C 335.131 226.444 333.916 225.228 333.916 223.728 C 333.916 222.229 335.131 221.013 336.631 221.013 C 338.131 221.013 339.346 222.229 339.346 223.728 Z" stroke-linecap="round" />
</g>
		<g transform="matrix(1 0 0 1 -95.37 -21.88)"  >
<path style="stroke: none; stroke-width: 1; stroke-dasharray: none; stroke-linecap: butt; stroke-dashoffset: 0; stroke-linejoin: miter; stroke-miterlimit: 4; fill: rgb(255,198,27); fill-rule: nonzero; opacity: 1;" vector-effect="non-scaling-stroke"  transform=" translate(-255.63, -296.12)" d="M 257.943 296.123 C 257.943 297.401 256.907 298.436 255.629 298.436 C 254.352 298.436 253.316 297.401 253.316 296.123 C 253.316 294.845 254.352 293.81 255.629 293.81 C 256.907 293.81 257.943 294.845 257.943 296.123 Z" stroke-linecap="round" />
</g>
		<g transform="matrix(1 0 0 1 -43.3 64.55)"  >
<path style="stroke: none; stroke-width: 1; stroke-dasharray: none; stroke-linecap: butt; stroke-dashoffset: 0; stroke-linejoin: miter; stroke-miterlimit: 4; fill: rgb(255,198,27); fill-rule: nonzero; opacity: 1;" vector-effect="non-scaling-stroke"  transform=" translate(-307.7, -382.55)" d="M 307.701 387.137 C 310.233 387.137 312.285 385.085 312.285 382.554 C 312.285 380.022 310.233 377.97 307.701 377.97 C 305.169 377.97 303.117 380.022 303.117 382.554 C 303.117 385.085 305.169 387.137 307.701 387.137 Z" stroke-linecap="round" />
</g>
		<g transform="matrix(1 0 0 1 17.81 -96.99)"  >
<path style="stroke: none; stroke-width: 1; stroke-dasharray: none; stroke-linecap: butt; stroke-dashoffset: 0; stroke-linejoin: miter; stroke-miterlimit: 4; fill: rgb(255,198,27); fill-rule: nonzero; opacity: 1;" vector-effect="non-scaling-stroke"  transform=" translate(-368.81, -221.01)" d="M 371.737 221.012 C 371.737 222.628 370.428 223.937 368.813 223.937 C 367.197 223.937 365.891 222.628 365.891 221.012 C 365.891 219.397 367.199 218.088 368.813 218.088 C 370.428 218.088 371.737 219.397 371.737 221.012 Z" stroke-linecap="round" />
</g>
		<g transform="matrix(1 0 0 1 -34.04 94.88)"  >
<path style="stroke: none; stroke-width: 1; stroke-dasharray: none; stroke-linecap: butt; stroke-dashoffset: 0; stroke-linejoin: miter; stroke-miterlimit: 4; fill: rgb(255,198,27); fill-rule: nonzero; opacity: 1;" vector-effect="non-scaling-stroke"  transform=" translate(-316.96, -412.88)" d="M 316.956 413.924 C 317.53 413.924 317.996 413.458 317.996 412.884 C 317.996 412.31 317.53 411.844 316.956 411.844 C 316.382 411.844 315.916 412.31 315.916 412.884 C 315.916 413.458 316.382 413.924 316.956 413.924 Z" stroke-linecap="round" />
</g>
		<g transform="matrix(1 0 0 1 70.82 -71.11)"  >
<path style="stroke: none; stroke-width: 1; stroke-dasharray: none; stroke-linecap: butt; stroke-dashoffset: 0; stroke-linejoin: miter; stroke-miterlimit: 4; fill: rgb(255,198,27); fill-rule: nonzero; opacity: 1;" vector-effect="non-scaling-stroke"  transform=" translate(-421.82, -246.89)" d="M 425.263 246.886 C 425.263 248.786 423.723 250.328 421.821 250.328 C 419.921 250.328 418.379 248.788 418.379 246.886 C 418.379 244.986 419.919 243.444 421.821 243.444 C 423.723 243.444 425.263 244.986 425.263 246.886 Z" stroke-linecap="round" />
</g>
		<g transform="matrix(1 0 0 1 35.44 -37.72)"  >
<path style="stroke: none; stroke-width: 1; stroke-dasharray: none; stroke-linecap: butt; stroke-dashoffset: 0; stroke-linejoin: miter; stroke-miterlimit: 4; fill: rgb(255,198,27); fill-rule: nonzero; opacity: 1;" vector-effect="non-scaling-stroke"  transform=" translate(-386.44, -280.28)" d="M 389.383 280.278 C 389.383 281.902 388.066 283.22 386.444 283.22 C 384.822 283.22 383.504 281.902 383.504 280.278 C 383.504 278.654 384.819 277.338 386.444 277.338 C 388.068 277.338 389.383 278.654 389.383 280.278 Z" stroke-linecap="round" />
</g>
		<g transform="matrix(1 0 0 1 42.94 -41.67)"  >
<path style="stroke: none; stroke-width: 1; stroke-dasharray: none; stroke-linecap: butt; stroke-dashoffset: 0; stroke-linejoin: miter; stroke-miterlimit: 4; fill: rgb(255,198,27); fill-rule: nonzero; opacity: 1;" vector-effect="non-scaling-stroke"  transform=" translate(-393.94, -276.33)" d="M 394.984 276.332 C 394.984 276.909 394.515 277.378 393.937 277.378 C 393.359 277.378 392.891 276.909 392.891 276.332 C 392.891 275.754 393.359 275.285 393.937 275.285 C 394.515 275.283 394.984 275.752 394.984 276.332 Z" stroke-linecap="round" />
</g>
		<g transform="matrix(1 0 0 1 -66.54 -28.9)"  >
<path style="stroke: none; stroke-width: 1; stroke-dasharray: none; stroke-linecap: butt; stroke-dashoffset: 0; stroke-linejoin: miter; stroke-miterlimit: 4; fill: rgb(255,198,27); fill-rule: nonzero; opacity: 1;" vector-effect="non-scaling-stroke"  transform=" translate(-284.46, -289.1)" d="M 286.9 289.095 C 286.9 290.44 285.809 291.531 284.465 291.531 C 283.118 291.531 282.029 290.44 282.029 289.095 C 282.029 287.751 283.12 286.66 284.465 286.66 C 285.809 286.658 286.9 287.749 286.9 289.095 Z" stroke-linecap="round" />
</g>
		<g transform="matrix(1 0 0 1 85.67 66.82)"  >
<path style="stroke: none; stroke-width: 1; stroke-dasharray: none; stroke-linecap: butt; stroke-dashoffset: 0; stroke-linejoin: miter; stroke-miterlimit: 4; fill: rgb(255,198,27); fill-rule: nonzero; opacity: 1;" vector-effect="non-scaling-stroke"  transform=" translate(-436.67, -384.82)" d="M 438.271 384.818 C 438.271 385.7 437.556 386.413 436.676 386.413 C 435.794 386.413 435.078 385.698 435.078 384.818 C 435.078 383.936 435.794 383.223 436.676 383.223 C 437.558 383.223 438.271 383.936 438.271 384.818 Z" stroke-linecap="round" />
</g>
		<g transform="matrix(1 0 0 1 -5.91 3.6)"  >
<path style="stroke: none; stroke-width: 1; stroke-dasharray: none; stroke-linecap: butt; stroke-dashoffset: 0; stroke-linejoin: miter; stroke-miterlimit: 4; fill: rgb(255,255,255); fill-rule: nonzero; opacity: 1;" vector-effect="non-scaling-stroke"  transform=" translate(-345.09, -321.6)" d="M 386.691 232.195 C 364.314 215.238 324.958 220.03 300.679 229.878 C 267.696 243.254 255.602 287.824 255.665 320.216 C 255.742 361.278 282.075 395.105 321.668 406.094 C 360.468 416.867 403.665 402.271 427.873 370.043 C 451.723 338.294 453.93 293.553 429.384 261.461 C 404.478 228.898 358.401 220.888 320.43 230.585 C 282.248 240.334 249.019 270.553 244.033 310.942 C 238.824 353.121 264.61 389.788 306.558 396.52 C 316.297 398.082 326.165 398.564 335.973 399.511 C 349.671 400.831 362.156 404.539 375.446 407.672 C 393.372 411.896 408.486 408.714 419.896 393.609 C 432.75 376.596 440.187 353.879 443.795 333.112 C 446.859 315.477 447.25 295.777 436.17 280.665 C 430.181 272.502 421.927 268.353 412.823 264.409 C 400.9 259.243 390.864 252.877 380.414 245.203 C 363.452 232.742 344.421 221.692 322.701 221.675 C 274.569 221.637 265.759 273.702 258.204 310.91 C 254.722 328.059 254.911 348.344 268.976 360.94 C 275.42 366.713 283.617 369.592 291.571 372.605 C 304.556 377.525 313.455 383.779 323.072 393.692 C 351.98 423.49 393.399 416.044 422.26 389.876 C 434.585 378.702 450.359 361.478 443.409 343.427 C 439.956 334.456 431.29 328.286 428.957 318.765 C 425.731 305.598 435.661 293.055 433.148 279.781 C 429.939 262.838 412.026 262.134 398.219 260.408 C 385.053 258.761 377.614 252.322 368.498 243.499 C 363.327 238.495 357.837 233.484 350.682 231.653 C 329.231 226.165 311.878 250.282 293.267 256.686 C 277.218 262.21 261.139 271.311 257.978 289.791 C 256.673 297.421 259.069 302.674 263.377 308.855 C 268.201 315.781 271.145 320.305 268.985 329.348 C 267.848 334.11 265.101 338.4 263.41 342.982 C 258.069 357.447 264.286 368.348 278.449 373.829 C 288.672 377.787 301.188 377.567 309.607 385.444 C 317.173 392.521 318.706 403.526 324.312 411.883 C 334.822 427.547 353.479 422.044 368.629 417.306 C 387.195 411.501 410.03 403.464 421.978 387.132 C 426.515 380.931 429.188 373.77 429.026 366.055 C 428.706 350.763 421.32 339.163 431.237 324.909 C 441.971 309.482 445.646 293.373 437.272 275.786 C 436.35 273.85 433.477 275.539 434.394 277.468 C 439.765 288.751 440.478 301.827 434.87 313.235 C 431.579 319.929 425.782 325.171 423.24 332.255 C 421.205 337.932 421.72 343.671 422.782 349.497 C 425.16 362.531 427.688 373.438 419.249 385.033 C 407.1 401.722 382.907 409.736 363.878 415.253 C 353.422 418.286 339.277 422.726 330.256 414.005 C 325.016 408.941 322.903 401.415 319.855 395.016 C 314.029 382.786 305.667 377.518 292.709 374.278 C 284.894 372.325 276.264 370.825 270.041 365.264 C 260.386 356.636 266.077 345.642 270.056 335.879 C 271.936 331.27 273.771 326.422 273.311 321.347 C 272.669 314.263 267.639 310.424 264.375 304.582 C 257.84 292.888 263.022 280.332 271.92 271.493 C 279.593 263.874 289.703 261.925 299.382 258.077 C 316.711 251.187 332.795 227.6 353.402 236.235 C 365.731 241.403 372.155 255.108 384.496 260.541 C 400.987 267.8 430.55 259.339 430.117 286.358 C 429.85 302.974 420.343 314.363 430.768 329.946 C 435.723 337.352 442.315 344.111 441.82 353.736 C 441.207 365.617 431.683 375.998 423.66 383.924 C 409.784 397.631 391.944 408.676 372.073 410.087 C 350.666 411.607 336.124 402.104 321.766 387.501 C 310.411 375.954 297.768 372.174 283.352 365.777 C 259.977 355.405 256.818 332.574 261.868 309.739 C 265.881 291.593 269.316 270.358 277.36 253.522 C 286.383 234.629 305.461 223.912 326.247 225.11 C 346.774 226.292 364.24 237.377 380.281 249.227 C 387.533 254.584 394.788 259.843 402.96 263.729 C 411.07 267.587 419.763 270.191 426.855 275.866 C 445.313 290.633 443.906 317.014 439.496 337.869 C 435.734 355.652 429.29 373.941 419.036 389.07 C 412.33 398.962 402.958 406.279 390.542 406.466 C 380.052 406.623 369.818 402.442 359.783 399.942 C 324.732 391.21 283.781 399.871 260.202 365.868 C 236.671 331.937 245.872 286.013 274.887 258.668 C 302.688 232.464 345.727 223.843 382.112 234.229 C 420.136 245.083 446.144 279.676 443.566 319.614 C 441.036 358.831 411.577 392.103 374.295 402.682 C 336.186 413.494 291.967 399.275 270.669 364.984 C 250.607 332.683 257.535 285.991 277.042 255.028 C 292.807 230.002 322.708 224.068 350.778 225.225 C 362.629 225.714 375.328 227.729 385.007 235.064 C 386.718 236.371 388.382 233.478 386.691 232.195 Z" stroke-linecap="round" />
</g>
		<g transform="matrix(1 0 0 1 48.63 -11.2)"  >
<path style="stroke: none; stroke-width: 1; stroke-dasharray: none; stroke-linecap: butt; stroke-dashoffset: 0; stroke-linejoin: miter; stroke-miterlimit: 4; fill: rgb(227,123,19); fill-rule: nonzero; opacity: 1;" vector-effect="non-scaling-stroke"  transform=" translate(-399.63, -306.8)" d="M 415.037 316.494 C 416.037 309.542 416.606 302.387 416.601 295.346 C 416.599 292.893 414.742 290.802 412.291 290.664 C 404.19 290.211 396.046 290.524 388.005 291.597 C 386.101 291.851 384.523 293.286 384.132 295.168 C 382.541 302.84 382.245 310.544 383.243 318.316 C 383.496 320.294 385.072 321.836 387.032 322.205 C 395.728 323.842 403.89 323.442 412.091 320.154 C 413.651 319.529 414.799 318.154 415.037 316.494 Z" stroke-linecap="round" />
</g>
		<g transform="matrix(1 0 0 1 31.98 44.11)"  >
<path style="stroke: none; stroke-width: 1; stroke-dasharray: none; stroke-linecap: butt; stroke-dashoffset: 0; stroke-linejoin: miter; stroke-miterlimit: 4; fill: rgb(227,123,19); fill-rule: nonzero; opacity: 1;" vector-effect="non-scaling-stroke"  transform=" translate(-382.98, -362.11)" d="M 400.297 355.04 C 395.06 350.361 389.414 345.93 383.546 342.038 C 381.502 340.682 378.731 341.073 377.262 343.038 C 372.403 349.535 368.159 356.491 364.604 363.784 C 363.762 365.51 364.084 367.619 365.437 368.985 C 370.948 374.556 377.202 379.062 384.228 382.531 C 386.015 383.413 388.172 382.955 389.563 381.526 C 395.738 375.187 399.917 368.168 401.717 359.516 C 402.057 357.873 401.548 356.156 400.297 355.04 Z" stroke-linecap="round" />
</g>
		<g transform="matrix(1 0 0 1 19.79 -34.56)"  >
<path style="stroke: none; stroke-width: 1; stroke-dasharray: none; stroke-linecap: butt; stroke-dashoffset: 0; stroke-linejoin: miter; stroke-miterlimit: 4; fill: rgb(227,123,19); fill-rule: nonzero; opacity: 1;" vector-effect="non-scaling-stroke"  transform=" translate(-370.79, -283.44)" d="M 388.11 276.372 C 382.871 271.692 377.227 267.259 371.359 263.369 C 369.315 262.013 366.544 262.404 365.075 264.369 C 360.216 270.866 355.972 277.822 352.417 285.115 C 351.574 286.841 351.897 288.95 353.248 290.317 C 358.76 295.887 365.015 300.393 372.039 303.862 C 373.827 304.744 375.983 304.286 377.374 302.857 C 383.548 296.518 387.728 289.499 389.528 280.847 C 389.872 279.207 389.361 277.489 388.11 276.372 Z" stroke-linecap="round" />
</g>
		<g transform="matrix(1 0 0 1 38.84 22.48)"  >
<path style="stroke: none; stroke-width: 1; stroke-dasharray: none; stroke-linecap: butt; stroke-dashoffset: 0; stroke-linejoin: miter; stroke-miterlimit: 4; fill: rgb(227,123,19); fill-rule: nonzero; opacity: 1;" vector-effect="non-scaling-stroke"  transform=" translate(-389.84, -340.48)" d="M 403.061 356.711 C 405.903 347.546 407.659 337.785 408.852 328.233 C 409.221 325.282 407.294 322.5 404.388 321.88 C 395.489 319.985 386.257 319.651 377.244 320.902 C 374.683 321.258 372.698 323.282 372.314 325.84 C 370.963 334.821 370.636 343.833 370.852 352.927 C 370.916 355.676 372.885 358.025 375.591 358.502 C 382.602 359.74 389.898 360.104 397.011 360.771 C 399.735 361.026 402.25 359.329 403.061 356.711 Z" stroke-linecap="round" />
</g>
		<g transform="matrix(1 0 0 1 -44.24 12.21)"  >
<path style="stroke: none; stroke-width: 1; stroke-dasharray: none; stroke-linecap: butt; stroke-dashoffset: 0; stroke-linejoin: miter; stroke-miterlimit: 4; fill: rgb(227,123,19); fill-rule: nonzero; opacity: 1;" vector-effect="non-scaling-stroke"  transform=" translate(-306.76, -330.21)" d="M 328.729 330.495 C 323.438 322.49 316.999 314.946 310.364 307.969 C 308.316 305.814 304.943 305.543 302.621 307.398 C 295.515 313.082 289.409 320.012 284.668 327.778 C 283.319 329.984 283.628 332.802 285.361 334.721 C 291.453 341.458 298.219 347.422 305.39 353.017 C 307.556 354.708 310.62 354.672 312.706 352.881 C 318.106 348.242 323.01 342.829 328.034 337.748 C 329.96 335.801 330.24 332.782 328.729 330.495 Z" stroke-linecap="round" />
</g>
		<g transform="matrix(1 0 0 1 -9.79 -0.58)"  >
<path style="stroke: none; stroke-width: 1; stroke-dasharray: none; stroke-linecap: butt; stroke-dashoffset: 0; stroke-linejoin: miter; stroke-miterlimit: 4; fill: rgb(227,123,19); fill-rule: nonzero; opacity: 1;" vector-effect="non-scaling-stroke"  transform=" translate(-341.21, -317.42)" d="M 363.18 317.708 C 357.89 309.702 351.45 302.158 344.816 295.182 C 342.767 293.026 339.394 292.755 337.072 294.61 C 329.966 300.294 323.86 307.225 319.119 314.99 C 317.77 317.197 318.079 320.014 319.814 321.934 C 325.907 328.671 332.673 334.635 339.843 340.229 C 342.009 341.92 345.073 341.885 347.157 340.094 C 352.557 335.454 357.461 330.042 362.485 324.96 C 364.413 323.014 364.691 319.994 363.18 317.708 Z" stroke-linecap="round" />
</g>
		<g transform="matrix(1 0 0 1 15.91 11.29)"  >
<path style="stroke: none; stroke-width: 1; stroke-dasharray: none; stroke-linecap: butt; stroke-dashoffset: 0; stroke-linejoin: miter; stroke-miterlimit: 4; fill: rgb(227,123,19); fill-rule: nonzero; opacity: 1;" vector-effect="non-scaling-stroke"  transform=" translate(-366.91, -329.29)" d="M 388.879 329.576 C 383.589 321.571 377.15 314.027 370.515 307.05 C 368.466 304.895 365.093 304.624 362.771 306.479 C 355.666 312.163 349.56 319.093 344.818 326.859 C 343.469 329.065 343.778 331.885 345.511 333.803 C 351.604 340.539 358.37 346.503 365.54 352.096 C 367.706 353.787 370.77 353.751 372.857 351.96 C 378.256 347.321 383.16 341.908 388.184 336.827 C 390.11 334.882 390.388 331.863 388.879 329.576 Z" stroke-linecap="round" />
</g>
		<g transform="matrix(1 0 0 1 -7.8 -32.92)"  >
<path style="stroke: none; stroke-width: 1; stroke-dasharray: none; stroke-linecap: butt; stroke-dashoffset: 0; stroke-linejoin: miter; stroke-miterlimit: 4; fill: rgb(227,123,19); fill-rule: nonzero; opacity: 1;" vector-effect="non-scaling-stroke"  transform=" translate(-343.2, -285.08)" d="M 365.166 285.365 C 359.876 277.359 353.437 269.816 346.802 262.841 C 344.753 260.686 341.38 260.415 339.059 262.27 C 331.953 267.954 325.847 274.884 321.105 282.65 C 319.756 284.856 320.065 287.674 321.798 289.594 C 327.891 296.328 334.657 302.294 341.827 307.887 C 343.993 309.578 347.058 309.542 349.144 307.751 C 354.543 303.112 359.447 297.697 364.471 292.618 C 366.397 290.671 366.677 287.649 365.166 285.365 Z" stroke-linecap="round" />
</g>
		<g transform="matrix(1 0 0 1 -39.81 -19.67)"  >
<path style="stroke: none; stroke-width: 1; stroke-dasharray: none; stroke-linecap: butt; stroke-dashoffset: 0; stroke-linejoin: miter; stroke-miterlimit: 4; fill: rgb(227,123,19); fill-rule: nonzero; opacity: 1;" vector-effect="non-scaling-stroke"  transform=" translate(-311.19, -298.33)" d="M 324.132 279.84 C 314.554 279.254 304.655 279.865 295.092 280.969 C 292.139 281.311 289.892 283.842 289.981 286.813 C 290.25 295.907 292.116 304.955 295.469 313.412 C 296.423 315.816 298.858 317.265 301.435 317.032 C 310.481 316.214 319.313 314.394 328.096 312.028 C 330.749 311.312 332.565 308.844 332.387 306.099 C 331.927 298.996 330.55 291.821 329.512 284.753 C 329.112 282.047 326.865 280.007 324.132 279.84 Z" stroke-linecap="round" />
</g>
		<g transform="matrix(1 0 0 1 -7.33 43.22)"  >
<path style="stroke: none; stroke-width: 1; stroke-dasharray: none; stroke-linecap: butt; stroke-dashoffset: 0; stroke-linejoin: miter; stroke-miterlimit: 4; fill: rgb(227,123,19); fill-rule: nonzero; opacity: 1;" vector-effect="non-scaling-stroke"  transform=" translate(-343.67, -361.22)" d="M 356.89 377.452 C 359.729 368.287 361.487 358.525 362.68 348.973 C 363.049 346.023 361.123 343.241 358.214 342.621 C 349.315 340.725 340.083 340.392 331.073 341.643 C 328.511 341.999 326.527 344.023 326.14 346.58 C 324.789 355.561 324.463 364.574 324.678 373.668 C 324.743 376.417 326.711 378.765 329.418 379.243 C 336.428 380.481 343.722 380.845 350.837 381.512 C 353.564 381.767 356.079 380.07 356.89 377.452 Z" stroke-linecap="round" />
</g>
		<g transform="matrix(1 0 0 1 -14.54 19.86)"  >
<path style="stroke: none; stroke-width: 1; stroke-dasharray: none; stroke-linecap: butt; stroke-dashoffset: 0; stroke-linejoin: miter; stroke-miterlimit: 4; fill: rgb(255,198,27); fill-rule: nonzero; opacity: 1;" vector-effect="non-scaling-stroke"  transform=" translate(-336.46, -337.86)" d="M 358.43 338.146 C 353.14 330.14 346.7 322.597 340.066 315.62 C 338.017 313.465 334.644 313.191 332.322 315.049 C 325.216 320.733 319.11 327.663 314.369 335.429 C 313.02 337.635 313.329 340.453 315.062 342.372 C 321.155 349.109 327.92 355.073 335.091 360.666 C 337.257 362.357 340.321 362.321 342.408 360.53 C 347.807 355.891 352.711 350.478 357.735 345.396 C 359.661 343.452 359.941 340.43 358.43 338.146 Z" stroke-linecap="round" />
</g>
		<g transform="matrix(1 0 0 1 -30.74 -25.16)"  >
<path style="stroke: none; stroke-width: 1; stroke-dasharray: none; stroke-linecap: butt; stroke-dashoffset: 0; stroke-linejoin: miter; stroke-miterlimit: 4; fill: rgb(255,198,27); fill-rule: nonzero; opacity: 1;" vector-effect="non-scaling-stroke"  transform=" translate(-320.26, -292.84)" d="M 342.229 293.127 C 336.938 285.122 330.499 277.578 323.864 270.603 C 321.816 268.448 318.443 268.177 316.121 270.032 C 309.017 275.716 302.909 282.646 298.167 290.412 C 296.819 292.619 297.128 295.436 298.863 297.356 C 304.956 304.093 311.721 310.056 318.892 315.649 C 321.058 317.34 324.122 317.304 326.209 315.514 C 331.608 310.874 336.512 305.459 341.536 300.38 C 343.46 298.433 343.74 295.414 342.229 293.127 Z" stroke-linecap="round" />
</g>
		<g transform="matrix(1 0 0 1 32.99 29.73)"  >
<path style="stroke: none; stroke-width: 1; stroke-dasharray: none; stroke-linecap: butt; stroke-dashoffset: 0; stroke-linejoin: miter; stroke-miterlimit: 4; fill: rgb(255,198,27); fill-rule: nonzero; opacity: 1;" vector-effect="non-scaling-stroke"  transform=" translate(-383.99, -347.73)" d="M 405.955 348.018 C 400.665 340.012 394.226 332.469 387.591 325.494 C 385.542 323.339 382.169 323.068 379.847 324.923 C 372.744 330.607 366.636 337.537 361.894 345.303 C 360.545 347.509 360.854 350.327 362.589 352.246 C 368.682 358.981 375.448 364.947 382.618 370.54 C 384.785 372.231 387.849 372.195 389.935 370.404 C 395.334 365.765 400.238 360.35 405.262 355.27 C 407.186 353.324 407.466 350.302 405.955 348.018 Z" stroke-linecap="round" />
</g>
		<g transform="matrix(1 0 0 1 27.3 -17.12)"  >
<path style="stroke: none; stroke-width: 1; stroke-dasharray: none; stroke-linecap: butt; stroke-dashoffset: 0; stroke-linejoin: miter; stroke-miterlimit: 4; fill: rgb(255,198,27); fill-rule: nonzero; opacity: 1;" vector-effect="non-scaling-stroke"  transform=" translate(-378.3, -300.88)" d="M 400.268 301.168 C 394.977 293.163 388.538 285.619 381.903 278.644 C 379.855 276.489 376.482 276.218 374.16 278.073 C 367.054 283.757 360.948 290.687 356.207 298.453 C 354.858 300.66 355.167 303.477 356.902 305.397 C 362.995 312.134 369.76 318.097 376.931 323.69 C 379.097 325.381 382.161 325.345 384.248 323.555 C 389.647 318.915 394.551 313.502 399.575 308.421 C 401.499 306.474 401.779 303.455 400.268 301.168 Z" stroke-linecap="round" />
</g>
		<g transform="matrix(1 0 0 1 13.15 -16.05)"  >
<path style="stroke: none; stroke-width: 1; stroke-dasharray: none; stroke-linecap: butt; stroke-dashoffset: 0; stroke-linejoin: miter; stroke-miterlimit: 4; fill: rgb(62,51,49); fill-rule: nonzero; opacity: 0.2;" vector-effect="non-scaling-stroke"  transform=" translate(-364.15, -301.95)" d="M 349.286 200.719 C 315.021 200.719 284.187 215.651 262.916 239.335 C 283.482 220.866 310.646 209.607 340.398 209.607 C 404.415 209.607 456.495 261.687 456.495 325.704 C 456.495 355.456 445.234 382.62 426.767 403.186 C 450.453 381.915 465.383 351.081 465.383 316.816 C 465.383 252.8 413.3 200.719 349.286 200.719 Z" stroke-linecap="round" />
</g>
		<g transform="matrix(1 0 0 1 -37.47 2.63)"  >
<path style="stroke: none; stroke-width: 1; stroke-dasharray: none; stroke-linecap: butt; stroke-dashoffset: 0; stroke-linejoin: miter; stroke-miterlimit: 4; fill: rgb(255,230,85); fill-rule: nonzero; opacity: 1;" vector-effect="non-scaling-stroke"  transform=" translate(-313.53, -320.63)" d="M 330.848 313.559 C 325.611 308.88 319.965 304.449 314.097 300.556 C 312.053 299.201 309.282 299.592 307.813 301.556 C 302.954 308.053 298.71 315.01 295.155 322.302 C 294.313 324.029 294.635 326.138 295.988 327.504 C 301.498 333.075 307.753 337.581 314.779 341.049 C 316.568 341.931 318.723 341.473 320.114 340.045 C 326.289 333.706 330.47 326.686 332.268 318.034 C 332.61 316.394 332.099 314.677 330.848 313.559 Z" stroke-linecap="round" />
</g>
		<g transform="matrix(1 0 0 1 38.86 8.85)"  >
<path style="stroke: none; stroke-width: 1; stroke-dasharray: none; stroke-linecap: butt; stroke-dashoffset: 0; stroke-linejoin: miter; stroke-miterlimit: 4; fill: rgb(255,230,85); fill-rule: nonzero; opacity: 1;" vector-effect="non-scaling-stroke"  transform=" translate(-389.86, -326.85)" d="M 407.173 319.784 C 401.935 315.105 396.289 310.672 390.421 306.781 C 388.377 305.426 385.606 305.817 384.138 307.781 C 379.278 314.278 375.034 321.235 371.479 328.528 C 370.637 330.254 370.959 332.363 372.31 333.729 C 377.823 339.3 384.078 343.806 391.101 347.274 C 392.89 348.156 395.045 347.699 396.436 346.27 C 402.611 339.931 406.793 332.911 408.59 324.259 C 408.935 322.619 408.424 320.902 407.173 319.784 Z" stroke-linecap="round" />
</g>
		<g transform="matrix(1 0 0 1 4.37 -20.78)"  >
<path style="stroke: none; stroke-width: 1; stroke-dasharray: none; stroke-linecap: butt; stroke-dashoffset: 0; stroke-linejoin: miter; stroke-miterlimit: 4; fill: rgb(255,230,85); fill-rule: nonzero; opacity: 1;" vector-effect="non-scaling-stroke"  transform=" translate(-355.37, -297.22)" d="M 372.686 290.153 C 367.447 285.474 361.803 281.043 355.935 277.15 C 353.891 275.795 351.12 276.186 349.651 278.15 C 344.792 284.647 340.548 291.604 336.993 298.897 C 336.151 300.623 336.473 302.732 337.826 304.098 C 343.339 309.669 349.591 314.175 356.617 317.643 C 358.406 318.525 360.561 318.068 361.952 316.639 C 368.127 310.3 372.306 303.281 374.106 294.628 C 374.448 292.989 373.937 291.271 372.686 290.153 Z" stroke-linecap="round" />
</g>
		<g transform="matrix(1 0 0 1 7.32 37.68)"  >
<path style="stroke: none; stroke-width: 1; stroke-dasharray: none; stroke-linecap: butt; stroke-dashoffset: 0; stroke-linejoin: miter; stroke-miterlimit: 4; fill: rgb(255,230,85); fill-rule: nonzero; opacity: 1;" vector-effect="non-scaling-stroke"  transform=" translate(-358.32, -355.68)" d="M 376.67 359.032 C 374.883 352.239 372.619 345.429 369.87 338.945 C 368.913 336.688 366.386 335.486 364.078 336.312 C 356.441 339.052 349.064 342.512 342.076 346.633 C 340.421 347.609 339.527 349.546 339.901 351.43 C 341.425 359.116 344.156 366.326 348.102 373.094 C 349.106 374.817 351.157 375.625 353.106 375.201 C 361.754 373.321 369.113 369.773 375.385 363.547 C 376.574 362.367 377.096 360.652 376.67 359.032 Z" stroke-linecap="round" />
</g>
		<g transform="matrix(1 0 0 1 -8.4 10.81)"  >
<path style="stroke: none; stroke-width: 1; stroke-dasharray: none; stroke-linecap: butt; stroke-dashoffset: 0; stroke-linejoin: miter; stroke-miterlimit: 4; fill: rgb(108,151,33); fill-rule: nonzero; opacity: 1;" vector-effect="non-scaling-stroke"  transform=" translate(-342.6, -328.81)" d="M 357.011 310.82 C 342.488 317.419 331.441 331.195 328.154 346.804 C 336.213 344.336 343.206 339.654 348.036 332.746 C 352.869 325.838 357.457 319.237 357.011 310.82 Z" stroke-linecap="round" />
</g>
		<g transform="matrix(1 0 0 1 2.77 -48.13)"  >
<path style="stroke: none; stroke-width: 1; stroke-dasharray: none; stroke-linecap: butt; stroke-dashoffset: 0; stroke-linejoin: miter; stroke-miterlimit: 4; fill: rgb(108,151,33); fill-rule: nonzero; opacity: 1;" vector-effect="non-scaling-stroke"  transform=" translate(-353.77, -269.87)" d="M 356.07 248.125 C 351.403 254.545 347.555 261.786 346.48 269.65 C 345.404 277.511 347.435 286.072 353.106 291.622 C 362.773 279.168 364.124 261.677 356.07 248.125 Z" stroke-linecap="round" />
</g>
		<g transform="matrix(1 0 0 1 -80.48 14.71)"  >
<path style="stroke: none; stroke-width: 1; stroke-dasharray: none; stroke-linecap: butt; stroke-dashoffset: 0; stroke-linejoin: miter; stroke-miterlimit: 4; fill: rgb(108,151,33); fill-rule: nonzero; opacity: 1;" vector-effect="non-scaling-stroke"  transform=" translate(-270.52, -332.71)" d="M 276.669 349.054 C 270.981 346.147 266.437 341.068 264.182 335.091 C 261.927 329.114 261.982 322.299 264.333 316.36 C 270.339 318.56 273.91 322.919 276.783 328.634 C 279.656 334.349 278.487 342.921 276.669 349.054 Z" stroke-linecap="round" />
</g>
		<g transform="matrix(1 0 0 1 32.24 58.3)"  >
<path style="stroke: none; stroke-width: 1; stroke-dasharray: none; stroke-linecap: butt; stroke-dashoffset: 0; stroke-linejoin: miter; stroke-miterlimit: 4; fill: rgb(108,151,33); fill-rule: nonzero; opacity: 1;" vector-effect="non-scaling-stroke"  transform=" translate(-383.24, -376.3)" d="M 392.242 360.914 C 386.618 364.229 380.956 367.888 377.235 373.254 C 373.513 378.62 372.153 386.115 375.55 391.692 C 381.616 388.892 387.042 385.168 390.2 379.283 C 393.355 373.392 393.266 367.515 392.242 360.914 Z" stroke-linecap="round" />
</g>
		<g transform="matrix(1 0 0 1 59.1 -71.83)"  >
<path style="stroke: none; stroke-width: 1; stroke-dasharray: none; stroke-linecap: butt; stroke-dashoffset: 0; stroke-linejoin: miter; stroke-miterlimit: 4; fill: rgb(108,151,33); fill-rule: nonzero; opacity: 1;" vector-effect="non-scaling-stroke"  transform=" translate(-410.1, -246.17)" d="M 413.749 254.854 C 407.568 251.894 404.348 243.902 406.752 237.485 C 412.556 241.475 415.48 248.026 413.749 254.854 Z" stroke-linecap="round" />
</g>
		<g transform="matrix(1 0 0 1 -30.03 83.3)"  >
<path style="stroke: none; stroke-width: 1; stroke-dasharray: none; stroke-linecap: butt; stroke-dashoffset: 0; stroke-linejoin: miter; stroke-miterlimit: 4; fill: rgb(108,151,33); fill-rule: nonzero; opacity: 1;" vector-effect="non-scaling-stroke"  transform=" translate(-320.97, -401.3)" d="M 333.714 390.632 C 321.822 391.17 310.85 400.353 308.229 411.965 C 321.445 410.781 329.693 403.277 333.714 390.632 Z" stroke-linecap="round" />
</g>
		<g transform="matrix(1 0 0 1 -61.03 32.86)"  >
<path style="stroke: none; stroke-width: 1; stroke-dasharray: none; stroke-linecap: butt; stroke-dashoffset: 0; stroke-linejoin: miter; stroke-miterlimit: 4; fill: rgb(240,95,59); fill-rule: nonzero; opacity: 1;" vector-effect="non-scaling-stroke"  transform=" translate(-289.97, -350.86)" d="M 292.289 350.268 C 291.263 351.447 290.378 351.447 289.352 352.627 C 288.785 351.452 288.221 350.276 287.654 349.101 C 288.839 349.339 291.109 350.03 292.289 350.268 Z" stroke-linecap="round" />
</g>
		<g transform="matrix(1 0 0 1 -56.67 -45.64)"  >
<path style="stroke: none; stroke-width: 1; stroke-dasharray: none; stroke-linecap: butt; stroke-dashoffset: 0; stroke-linejoin: miter; stroke-miterlimit: 4; fill: rgb(240,95,59); fill-rule: nonzero; opacity: 1;" vector-effect="non-scaling-stroke"  transform=" translate(-294.33, -272.36)" d="M 294.824 275.554 C 293.72 275.554 293.295 275.076 292.193 275.076 C 292.582 273.105 292.971 271.134 293.358 269.164 C 294.302 269.324 295.522 269.312 296.468 269.475 C 295.915 271.679 295.375 273.348 294.824 275.554 Z" stroke-linecap="round" />
</g>
		<g transform="matrix(1 0 0 1 -16.64 -63.15)"  >
<path style="stroke: none; stroke-width: 1; stroke-dasharray: none; stroke-linecap: butt; stroke-dashoffset: 0; stroke-linejoin: miter; stroke-miterlimit: 4; fill: rgb(240,95,59); fill-rule: nonzero; opacity: 1;" vector-effect="non-scaling-stroke"  transform=" translate(-334.36, -254.85)" d="M 337.306 252.554 C 336.284 252.232 335.042 251.623 334.018 251.301 C 333.151 252.325 332.285 253.349 331.418 254.374 C 331.971 255.949 333.66 256.831 334.213 258.407 C 335.158 256.438 336.36 254.523 337.306 252.554 Z" stroke-linecap="round" />
</g>
		<g transform="matrix(1 0 0 1 -77.32 -17.56)"  >
<path style="stroke: none; stroke-width: 1; stroke-dasharray: none; stroke-linecap: butt; stroke-dashoffset: 0; stroke-linejoin: miter; stroke-miterlimit: 4; fill: rgb(240,95,59); fill-rule: nonzero; opacity: 1;" vector-effect="non-scaling-stroke"  transform=" translate(-273.68, -300.44)" d="M 276.628 298.648 C 274.546 299.339 272.812 299.652 270.73 300.341 C 271.597 300.972 272.464 301.601 273.33 302.232 C 274.243 301.168 275.717 299.712 276.628 298.648 Z" stroke-linecap="round" />
</g>
		<g transform="matrix(1 0 0 1 61.84 48.59)"  >
<path style="stroke: none; stroke-width: 1; stroke-dasharray: none; stroke-linecap: butt; stroke-dashoffset: 0; stroke-linejoin: miter; stroke-miterlimit: 4; fill: rgb(240,95,59); fill-rule: nonzero; opacity: 1;" vector-effect="non-scaling-stroke"  transform=" translate(-412.84, -366.59)" d="M 409.734 367.494 C 409.594 366.4 410.016 365.918 409.876 364.823 C 411.88 364.958 413.885 365.096 415.889 365.232 C 415.849 366.189 416.013 367.398 415.973 368.356 C 413.716 368.087 411.991 367.762 409.734 367.494 Z" stroke-linecap="round" />
</g>
		<g transform="matrix(1 0 0 1 65.6 9.86)"  >
<path style="stroke: none; stroke-width: 1; stroke-dasharray: none; stroke-linecap: butt; stroke-dashoffset: 0; stroke-linejoin: miter; stroke-miterlimit: 4; fill: rgb(240,95,59); fill-rule: nonzero; opacity: 1;" vector-effect="non-scaling-stroke"  transform=" translate(-416.6, -327.86)" d="M 413.496 328.765 C 413.356 327.672 413.778 327.187 413.638 326.094 C 415.642 326.23 417.646 326.368 419.65 326.503 C 419.61 327.461 419.775 328.67 419.735 329.627 C 417.48 329.358 415.755 329.034 413.496 328.765 Z" stroke-linecap="round" />
</g>
		<g transform="matrix(1 0 0 1 22.93 103.77)"  >
<path style="stroke: none; stroke-width: 1; stroke-dasharray: none; stroke-linecap: butt; stroke-dashoffset: 0; stroke-linejoin: miter; stroke-miterlimit: 4; fill: rgb(240,95,59); fill-rule: nonzero; opacity: 1;" vector-effect="non-scaling-stroke"  transform=" translate(-373.93, -421.77)" d="M 376.617 424.58 C 376.806 423.524 377.255 422.216 377.444 421.16 C 376.317 420.429 375.193 419.698 374.066 418.969 C 372.573 419.716 371.911 421.504 370.418 422.251 C 372.493 422.94 374.544 423.891 376.617 424.58 Z" stroke-linecap="round" />
</g>
		<g transform="matrix(1 0 0 1 -38.58 47.82)"  >
<path style="stroke: none; stroke-width: 1; stroke-dasharray: none; stroke-linecap: butt; stroke-dashoffset: 0; stroke-linejoin: miter; stroke-miterlimit: 4; fill: rgb(240,95,59); fill-rule: nonzero; opacity: 1;" vector-effect="non-scaling-stroke"  transform=" translate(-312.42, -365.82)" d="M 315.104 368.627 C 315.292 367.571 315.741 366.262 315.93 365.207 C 314.804 364.476 313.679 363.745 312.553 363.016 C 311.06 363.763 310.397 365.551 308.904 366.298 C 310.977 366.987 313.028 367.938 315.104 368.627 Z" stroke-linecap="round" />
</g>
		<g transform="matrix(1 0 0 1 98.82 18.04)"  >
<path style="stroke: none; stroke-width: 1; stroke-dasharray: none; stroke-linecap: butt; stroke-dashoffset: 0; stroke-linejoin: miter; stroke-miterlimit: 4; fill: rgb(240,95,59); fill-rule: nonzero; opacity: 1;" vector-effect="non-scaling-stroke"  transform=" translate(-449.82, -336.04)" d="M 450.89 338.417 C 449.591 337.548 449.48 336.67 448.18 335.802 C 449.273 335.093 450.368 334.382 451.461 333.673 C 451.377 334.875 450.975 337.215 450.89 338.417 Z" stroke-linecap="round" />
</g>
		<g transform="matrix(1 0 0 1 66.93 -39.73)"  >
<path style="stroke: none; stroke-width: 1; stroke-dasharray: none; stroke-linecap: butt; stroke-dashoffset: 0; stroke-linejoin: miter; stroke-miterlimit: 4; fill: rgb(240,95,59); fill-rule: nonzero; opacity: 1;" vector-effect="non-scaling-stroke"  transform=" translate(-417.93, -278.27)" d="M 419.794 281.307 C 420.245 280.336 421.012 279.183 421.465 278.212 C 420.563 277.218 419.661 276.225 418.757 275.232 C 417.121 275.574 416.028 277.134 414.393 277.476 C 416.223 278.672 417.965 280.111 419.794 281.307 Z" stroke-linecap="round" />
</g>
		<g transform="matrix(1 0 0 1 -13.7 -99.91)"  >
<path style="stroke: none; stroke-width: 1; stroke-dasharray: none; stroke-linecap: butt; stroke-dashoffset: 0; stroke-linejoin: miter; stroke-miterlimit: 4; fill: rgb(240,95,59); fill-rule: nonzero; opacity: 1;" vector-effect="non-scaling-stroke"  transform=" translate(-337.3, -218.09)" d="M 334.355 220.38 C 335.378 220.705 336.617 221.32 337.637 221.647 C 338.508 220.627 339.379 219.605 340.25 218.585 C 339.706 217.007 338.017 216.118 337.473 214.539 C 336.52 216.503 335.309 218.414 334.355 220.38 Z" stroke-linecap="round" />
</g>
		<g transform="matrix(1 0 0 1 -61.03 88.22)"  >
<path style="stroke: none; stroke-width: 1; stroke-dasharray: none; stroke-linecap: butt; stroke-dashoffset: 0; stroke-linejoin: miter; stroke-miterlimit: 4; fill: rgb(240,95,59); fill-rule: nonzero; opacity: 1;" vector-effect="non-scaling-stroke"  transform=" translate(-289.97, -406.22)" d="M 287.018 408.003 C 289.102 407.321 290.837 407.016 292.921 406.334 C 292.057 405.701 291.193 405.065 290.328 404.432 C 289.413 405.494 287.933 406.943 287.018 408.003 Z" stroke-linecap="round" />
</g>
		<g transform="matrix(1 0 0 1 14.18 -105.24)"  >
<linearGradient id="SVGID_paint0_linear_1095_31197_3" gradientUnits="userSpaceOnUse" gradientTransform="matrix(1 0 0 1 0 0)"  x1="371.892" y1="152.406" x2="344.874" y2="327.939">
<stop offset="0%" style="stop-color:rgb(122,129,21);stop-opacity: 1"/>
<stop offset="30.886200000000002%" style="stop-color:rgb(108,151,33);stop-opacity: 1"/>
<stop offset="100%" style="stop-color:rgb(237,160,0);stop-opacity: 0"/>
</linearGradient>
<path style="stroke: none; stroke-width: 1; stroke-dasharray: none; stroke-linecap: butt; stroke-dashoffset: 0; stroke-linejoin: miter; stroke-miterlimit: 4; fill: url(#SVGID_paint0_linear_1095_31197_3); fill-rule: nonzero; opacity: 1;" vector-effect="non-scaling-stroke"  transform=" translate(-365.18, -212.76)" d="M 303.996 273.284 L 307.432 250.958 L 354.503 258.203 L 362.762 240.429 L 330.575 235.474 L 318.088 142.133 L 344.879 146.257 L 353.432 216.9 L 371.107 219.62 L 399.763 154.705 L 426.368 158.8 L 369.671 283.393 L 303.996 273.284 Z" stroke-linecap="round" />
</g>
		<g transform="matrix(1 0 0 1 -203.77 -22.87)"  >
<path style="stroke: none; stroke-width: 1; stroke-dasharray: none; stroke-linecap: butt; stroke-dashoffset: 0; stroke-linejoin: miter; stroke-miterlimit: 4; fill: rgb(220,255,244); fill-rule: nonzero; opacity: 1;" vector-effect="non-scaling-stroke"  transform=" translate(-147.23, -295.13)" d="M 102.427 340.684 L 102.427 249.576 L 122.757 229.246 L 190.147 229.246 L 190.147 253.529 L 129.91 253.529 L 129.91 336.731 L 192.029 336.731 L 192.029 361.014 L 122.757 361.014 L 102.427 340.684 Z" stroke-linecap="round" />
</g>
		<g transform="matrix(1 0 0 1 -203.77 -22.87)"  >
<path style="stroke: none; stroke-width: 1; stroke-dasharray: none; stroke-linecap: butt; stroke-dashoffset: 0; stroke-linejoin: miter; stroke-miterlimit: 4; fill: rgb(37,70,74); fill-rule: nonzero; opacity: 1;" vector-effect="non-scaling-stroke"  transform=" translate(-147.23, -295.13)" d="M 102.427 340.684 L 99.5312 340.684 L 99.5312 341.883 L 100.379 342.732 L 102.427 340.684 Z M 102.427 249.576 L 100.379 247.528 L 99.5312 248.376 L 99.5312 249.576 L 102.427 249.576 Z M 122.757 229.246 L 122.757 226.35 L 121.558 226.35 L 120.709 227.198 L 122.757 229.246 Z M 190.147 229.246 L 193.043 229.246 L 193.043 226.35 L 190.147 226.35 L 190.147 229.246 Z M 190.147 253.529 L 190.147 256.425 L 193.043 256.425 L 193.043 253.529 L 190.147 253.529 Z M 129.91 253.529 L 129.91 250.633 L 127.014 250.633 L 127.014 253.529 L 129.91 253.529 Z M 129.91 336.731 L 127.014 336.731 L 127.014 339.627 L 129.91 339.627 L 129.91 336.731 Z M 192.029 336.731 L 194.925 336.731 L 194.925 333.835 L 192.029 333.835 L 192.029 336.731 Z M 192.029 361.014 L 192.029 363.91 L 194.925 363.91 L 194.925 361.014 L 192.029 361.014 Z M 122.757 361.014 L 120.709 363.061 L 121.558 363.91 L 122.757 363.91 L 122.757 361.014 Z M 105.323 340.684 L 105.323 249.576 L 99.5312 249.576 L 99.5312 340.684 L 105.323 340.684 Z M 104.475 251.623 L 124.805 231.293 L 120.709 227.198 L 100.379 247.528 L 104.475 251.623 Z M 122.757 232.142 L 190.147 232.142 L 190.147 226.35 L 122.757 226.35 L 122.757 232.142 Z M 187.251 229.246 L 187.251 253.529 L 193.043 253.529 L 193.043 229.246 L 187.251 229.246 Z M 190.147 250.633 L 129.91 250.633 L 129.91 256.425 L 190.147 256.425 L 190.147 250.633 Z M 127.014 253.529 L 127.014 336.731 L 132.806 336.731 L 132.806 253.529 L 127.014 253.529 Z M 129.91 339.627 L 192.029 339.627 L 192.029 333.835 L 129.91 333.835 L 129.91 339.627 Z M 189.133 336.731 L 189.133 361.014 L 194.925 361.014 L 194.925 336.731 L 189.133 336.731 Z M 192.029 358.118 L 122.757 358.118 L 122.757 363.91 L 192.029 363.91 L 192.029 358.118 Z M 124.805 358.966 L 104.475 338.636 L 100.379 342.732 L 120.709 363.061 L 124.805 358.966 Z" stroke-linecap="round" />
</g>
</g>
</g>
</svg>